<svg xmlns="http://www.w3.org/2000/svg" viewBox="0 0 24 24"><defs><linearGradient id="a" x1="0%" x2="0%" y1="0%" y2="100%"><stop offset="0%" style="stop-color:#f1cf6a"/><stop offset="100%" style="stop-color:#755a0b"/></linearGradient></defs><path fill="url(#a)" d="M14.256 21.744 12 24l-2.256-2.256C5.31 20.72 2 16.744 2 12 2 6.48 6.48 2 12 2s10 4.48 10 10c0 4.744-3.31 8.72-7.744 9.744z"/><g fill="#fff" stroke="#eee" aria-label="Temple Symbol"><path stroke-linejoin="round" stroke-width=".75" d="M26 19h12l-6-4z" transform="matrix(1 0 0 .8 -19.9 -6.9)"/><path stroke-width=".5" d="M27 19h3v9h-3z" transform="matrix(1 0 0 .8 -19.9 -6.9)"/><path stroke-width=".5" d="M26.5 18.5h4v1h-4zM26.5 28h4v1h-4zM34 19h3v9h-3z" transform="matrix(1 0 0 .8 -19.9 -6.9)"/><path stroke-width=".5" d="M33.5 18.5h4v1h-4zM33.5 28h4v1h-4zM26 29h12v1.5H26z" transform="matrix(1 0 0 .8 -19.9 -6.9)"/></g></svg>