<svg xmlns="http://www.w3.org/2000/svg" xmlns:xlink="http://www.w3.org/1999/xlink" viewBox="0 0 744 612.32"><defs><linearGradient id="a" x1="255.59" y1="326.13" x2="495.5" y2="326.13" gradientUnits="userSpaceOnUse"><stop offset="0"/><stop offset="1"/></linearGradient><linearGradient id="b" x1="538.63" y1="258.25" x2="616.81" y2="258.25" xlink:href="#a"/><linearGradient id="c" x1="535.37" y1="175.04" x2="635.25" y2="175.04" xlink:href="#a"/><linearGradient id="d" x1="540.23" y1="234.42" x2="681.16" y2="234.42" xlink:href="#a"/><linearGradient id="e" x1="872.3" y1="-490.85" x2="931.94" y2="-490.85" gradientTransform="matrix(0.43, 0.5, -0.53, 0.45, -113.42, -113.46)" gradientUnits="userSpaceOnUse"><stop offset="0.01" stop-color="#fff"/><stop offset="1" stop-color="#fff"/></linearGradient><linearGradient id="f" x1="202.91" y1="426.34" x2="292.11" y2="426.34" gradientTransform="matrix(0.68, 0.05, -0.07, 0.93, -28.21, -34.97)" xlink:href="#e"/></defs><polygon points="0 612.32 255.59 497.69 255.59 54.56 43.24 140.36 0 612.32" fill="#f8f8f8"/><polygon points="495.5 597.71 255.59 497.69 255.59 54.56 467.94 140.36 495.5 597.71" fill="#f8f8f8"/><polygon points="467.94 140.36 665.14 64.92 744 497.15 495.5 597.71 467.94 140.36" fill="#f8f8f8"/><polygon points="56.61 226.15 56.61 226.15 40.3 435.5 191.69 281.79 56.61 226.15" fill="#a5dd1b"/><polygon points="62.02 156.77 58.55 201.29 255.59 282.81 255.59 75.46 62.02 156.77" fill="#f9db85"/><polygon points="37.49 471.45 29.45 574.6 255.59 471.33 255.59 308.11 212.49 290.35 37.49 471.45" fill="#fd8e77"/><polygon points="333.63 409.89 410.75 535.49 410.75 535.49 493.82 569.92 477.35 294.86 333.63 409.89" fill="#7acdee"/><polygon points="333.17 201.63 407.09 330.05 476.16 275.26 476.89 287.29 469.15 159.73 333.96 106.39 333.17 201.63" fill="#a5dd1b"/><polygon points="324.89 395.27 393.38 340.94 315.56 206.71 315.56 99.12 315.56 99.12 255.59 75.46 255.59 282.81 325.85 397.22 324.89 395.27" fill="#f9db85"/><polygon points="255.59 308.11 255.59 471.33 380.42 522.95 255.59 308.11" fill="#fd8e77"/><polygon points="552.53 212.47 674.86 221.56 652.56 91.24 540.21 133.19 552.53 212.47" fill="#f9db85"/><polygon points="562.47 328.59 550.29 548.28 719.66 483.39 702.68 384.14 562.47 328.59" fill="#a5dd1b"/><polygon points="476.16 275.26 698.8 361.46 677.36 236.18 539.76 226.15 525.87 138.55 469.15 159.73 476.1 275.33 476.16 275.26" fill="#a5dd1b"/><polygon points="477.28 294.84 493.82 569.92 530.03 556.05 543.5 321.07 477.35 294.86 477.28 294.84" fill="#7acdee"/><polygon points="495.5 597.71 255.59 497.69 255.59 54.56 467.94 140.36 495.5 597.71" opacity="0.08" fill="url(#a)"/><ellipse cx="577.72" cy="258.25" rx="39.09" ry="12.59" opacity="0.1" fill="url(#b)"/><path d="M681.16,169.28c0,96.88-100.44,157.81-100.44,157.81S480.28,266.16,480.28,169.28a100.44,100.44,0,1,1,200.88,0Z" transform="translate(-3 -68.84)" fill="#f9634e"/><circle cx="577.72" cy="100.44" r="54.53" fill="#f8f8f8"/><path d="M614.22,126.27a54.52,54.52,0,0,1-78.85,73.3,54.53,54.53,0,1,0,78.85-73.3Z" transform="translate(-3 -68.84)" opacity="0.1" fill="url(#c)"/><path d="M677.34,141.74a171.77,171.77,0,0,1-18.84,67.63c-26.38,51.64-73.43,83.56-118.27,85.18,21.48,21,40.49,32.54,40.49,32.54s100.44-60.93,100.44-157.81A100.49,100.49,0,0,0,677.34,141.74Z" transform="translate(-3 -68.84)" opacity="0.1" fill="url(#d)"/><path d="M546.2,131.28c-23.89,20.39-42,37.47-48.51,29.81s-1.6-38.66,22.28-59,57.68-22.43,64.22-14.77S570.08,110.9,546.2,131.28Z" transform="translate(-3 -68.84)" opacity="0.3" fill="url(#e)"/><path d="M133.34,376.64c-11.3,70.41-25,146.59-42.66,145.18S75.2,395.65,80.91,324.3s17.94-89.74,54.54-95.3C153.2,226.31,144.24,308.68,133.34,376.64Z" transform="translate(-3 -68.84)" opacity="0.4" fill="url(#f)"/></svg>