<?xml version="1.0" encoding="UTF-8" standalone="no"?>
<!-- Created with Inkscape (http://www.inkscape.org/) -->

<svg
   width="210mm"
   height="210mm"
   viewBox="0 0 210 210"
   version="1.1"
   id="svg1"
   xml:space="preserve"
   xmlns:xlink="http://www.w3.org/1999/xlink"
   xmlns="http://www.w3.org/2000/svg"
   xmlns:svg="http://www.w3.org/2000/svg"><defs
     id="defs1"><linearGradient
       id="a"
       x1="472.26001"
       y1="695.60999"
       x2="579.75"
       y2="695.60999"
       gradientUnits="userSpaceOnUse"><stop
         offset="0"
         id="stop1" /><stop
         offset="1"
         id="stop2" /></linearGradient><linearGradient
       id="b"
       x1="490.98999"
       y1="490.88"
       x2="628.31"
       y2="490.88"
       xlink:href="#a"
       gradientTransform="matrix(0.26458333,0,0,0.26458333,7.3655448,38.775229)" /><linearGradient
       id="c"
       x1="497.67999"
       y1="572.5"
       x2="691.42999"
       y2="572.5"
       xlink:href="#a"
       gradientTransform="matrix(0.26458333,0,0,0.26458333,7.3655448,38.775229)" /><linearGradient
       id="d"
       x1="-2051.8999"
       y1="-657.45001"
       x2="-1971.96"
       y2="-657.45001"
       gradientTransform="matrix(0.39,0.72,-0.69,0.38,842.93,2101.23)"
       gradientUnits="userSpaceOnUse"><stop
         offset="0.01"
         stop-color="#fff"
         id="stop3" /><stop
         offset="1"
         stop-color="#fff"
         id="stop4" /></linearGradient><linearGradient
       id="e"
       x1="78.949997"
       y1="443"
       x2="156.81"
       y2="443"
       xlink:href="#a"
       gradientTransform="matrix(0.26458333,0,0,0.26458333,14.599253,39.912937)" /><linearGradient
       id="f"
       x1="100.06"
       y1="295.87"
       x2="199.53"
       y2="295.87"
       xlink:href="#a"
       gradientTransform="matrix(0.26458333,0,0,0.26458333,7.3655448,38.775229)" /><linearGradient
       id="g"
       x1="104.9"
       y1="355"
       x2="245.25"
       y2="355"
       xlink:href="#a"
       gradientTransform="matrix(0.26458333,0,0,0.26458333,7.3655448,38.775229)" /><linearGradient
       id="h"
       x1="390.42001"
       y1="167.64"
       x2="441.12"
       y2="167.64"
       xlink:href="#a"
       gradientTransform="matrix(0.26458333,0,0,0.26458333,14.599253,39.912937)" /><linearGradient
       id="i"
       x1="413.70001"
       y1="73.339996"
       x2="478.47"
       y2="73.339996"
       xlink:href="#a"
       gradientTransform="matrix(0.26458333,0,0,0.26458333,7.3655448,38.775229)" /><linearGradient
       id="j"
       x1="416.85999"
       y1="111.85"
       x2="508.23999"
       y2="111.85"
       xlink:href="#a"
       gradientTransform="matrix(0.26458333,0,0,0.26458333,7.3655448,38.775229)" /><linearGradient
       id="k"
       x1="-2484.72"
       y1="-781.53003"
       x2="-2445.8899"
       y2="-781.53003"
       xlink:href="#d"
       gradientTransform="matrix(0.26458333,0,0,0.26458333,7.3655448,38.775229)" /><linearGradient
       id="l"
       x1="-2425.8"
       y1="-289.76999"
       x2="-2379.4099"
       y2="-289.76999"
       xlink:href="#d"
       gradientTransform="matrix(0.26458333,0,0,0.26458333,7.3655448,38.775229)" /><linearGradient
       xlink:href="#a"
       id="linearGradient1"
       gradientUnits="userSpaceOnUse"
       x1="472.26001"
       y1="695.60999"
       x2="579.75"
       y2="695.60999"
       gradientTransform="matrix(0.26458333,0,0,0.26458333,14.599253,39.912937)" /><linearGradient
       xlink:href="#d"
       id="linearGradient2"
       gradientUnits="userSpaceOnUse"
       gradientTransform="matrix(0.1031875,0.1905,-0.1825625,0.10054167,230.39077,594.72566)"
       x1="-2051.8999"
       y1="-657.45001"
       x2="-1971.96"
       y2="-657.45001" /></defs><g
     id="layer1"><g
       id="g2"
       transform="matrix(0.84792132,0,0,0.8787715,20.405821,-14.747056)"><path
         d="m 198.56933,234.56689 v -31.1441 c -48.1912,-5.55625 -96.28187,-19.34898 -98.620786,-34.925 C 96.244377,143.91535 158.78923,129.7231 156.76781,104.36808 154.80461,79.727437 88.272481,69.644166 87.645419,58.089812 87.402002,53.618354 96.717981,45.747 105.16877,39.912937 H 82.340523 c -9.726083,5.635625 -19.05,13.155083 -21.283083,21.119042 -4.945062,17.541874 50.40577,32.059562 44.87333,41.772411 -5.55625,9.77107 -84.436475,31.16792 -90.818225,70.84219 -3.635375,22.606 12.493625,45.6909 32.591374,61.48123 H 198.56933 Z"
         fill="#747b7f"
         id="path4"
         style="stroke-width:0.264583" /><path
         d="m 111.63254,102.51335 c 0.52917,-1.63777 0.3228,-3.291413 -0.59002,-4.913309 -2.46327,-4.370917 -11.289768,-9.395354 -20.637497,-14.716125 -11.131021,-6.35 -23.749,-13.520208 -24.60625,-19.579166 -0.73025,-5.164667 8.995833,-15.507229 21.87575,-23.39975 H 85.63194 c -12.660313,8.077729 -21.674667,18.113375 -20.902083,23.547916 0.931333,6.577542 13.229166,13.583708 25.135416,20.359687 9.210146,5.244042 17.909647,10.197042 20.227397,14.308667 0.76994,1.367896 0.93398,2.69346 0.50006,4.05342 -1.68275,5.29166 -12.094103,10.21027 -23.11929,15.41991 l -1.629834,0.76994 c -13.284729,6.29179 -28.548541,13.77685 -41.613666,23.04521 -17.920229,12.72381 -23.106062,24.94491 -24.304625,32.95385 -1.389062,9.31598 2.786063,21.53973 11.728979,34.417 7.260167,10.43781 16.891,20.02631 26.355146,26.34721 h 1.981729 c -9.789583,-6.21242 -19.90725,-16.12106 -27.447875,-26.96633 -8.797395,-12.64973 -12.895791,-24.60625 -11.546416,-33.63913 1.669521,-11.18658 9.921875,-22.32818 23.865416,-32.22096 12.993688,-9.21543 28.209875,-16.66875 41.452271,-22.94731 l 1.629833,-0.77258 c 11.231562,-5.31283 21.862522,-10.32933 23.688142,-16.06815 z m 18.89919,91.83688 c -22.39698,-7.45067 -33.975145,-15.66598 -35.395957,-25.13542 -2.362729,-15.73742 13.909147,-26.8261 29.633337,-37.54702 2.20662,-1.50548 4.49791,-2.96598 6.69925,-4.37621 10.65741,-6.81037 20.72481,-13.24504 20.447,-23.47383 -0.0979,-3.5904 -3.3708,-9.392709 -10.31875,-13.641917 -7.73113,-4.725459 -18.33827,-9.260417 -28.54061,-13.49375 q -2.14841,-0.891646 -4.13014,-1.709209 c -8.46667,-3.4925 -14.570608,-6.016625 -18.618733,-8.601604 -4.09575,-2.608791 -5.789083,-5.13027 -5.68325,-8.429625 0.153458,-5.109104 8.813271,-12.525374 17.248183,-18.028708 h -1.955266 c -5.767917,3.889375 -16.1925,11.811 -16.380354,17.996958 -0.232834,7.654396 8.202083,11.131021 24.98196,18.063104 1.32291,0.547688 2.69875,1.113896 4.1275,1.709209 10.16529,4.233333 20.72746,8.73125 28.39243,13.422312 7.61471,4.648729 9.74461,10.37696 9.80811,12.75821 0.26458,9.6176 -9.55411,15.89087 -19.94694,22.53456 -2.21456,1.41552 -4.49792,2.87867 -6.72835,4.39208 -15.99936,10.90877 -32.57021,22.18267 -30.104294,38.58948 1.486959,9.906 13.303254,18.40706 36.123564,25.98473 16.04433,5.32871 43.39166,11.01461 68.37891,14.23988 v -1.09009 c -24.892,-3.21998 -52.08058,-8.87148 -68.0376,-14.16314 z"
         fill="#ffffff"
         id="path5"
         style="stroke-width:0.264583" /><path
         d="m 147.14492,236.07502 a 0.94456249,0.94456249 0 0 1 -0.24342,-0.0317 c -0.0688,-0.0185 -6.90827,-1.85209 -16.637,-5.34194 a 0.94720832,0.94720832 0 1 1 0.64029,-1.78065 c 9.652,3.47398 16.40417,5.2758 16.4809,5.29167 a 0.94720832,0.94720832 0 0 1 -0.24077,1.85208 z"
         fill="#ffffff"
         id="path6"
         style="stroke-width:0.264583" /><path
         d="m 114.83929,224.51273 a 0.96043749,0.96043749 0 0 1 -0.37835,-0.0794 193.41041,193.41041 0 0 1 -22.9235,-11.74221 0.94720832,0.94720832 0 0 1 0.981604,-1.61925 190.82279,190.82279 0 0 0 22.698606,11.6258 0.94720832,0.94720832 0 0 1 -0.37836,1.81504 z"
         fill="#ffffff"
         id="path7"
         style="stroke-width:0.264583" /><path
         d="m 81.09169,206.2406 a 0.94191665,0.94191665 0 0 1 -0.600604,-0.21696 c -4.960938,-4.07723 -12.022667,-10.2526 -16.031104,-16.78781 a 0.94545236,0.94545236 0 1 1 1.611312,-0.98954 c 3.862917,6.29179 10.765896,12.32429 15.610417,16.31685 a 0.94456249,0.94456249 0 0 1 -0.600605,1.67746 z"
         fill="#ffffff"
         id="path8"
         style="stroke-width:0.264583" /><path
         d="m 58.530669,175.42987 a 0.81491666,0.81491666 0 0 1 -0.79375,-0.61648 34.813875,34.813875 0 0 1 -1.029229,-8.37141 c 0,-2.87602 1.161521,-5.95577 3.439583,-9.15988 a 0.81275869,0.81275869 0 1 1 1.322917,0.94456 c -2.090208,2.91042 -3.148542,5.6859 -3.148542,8.20209 a 33.17875,33.17875 0 0 0 0.981604,7.97983 0.81227082,0.81227082 0 0 1 -0.79375,1.00806 z"
         fill="#ffffff"
         id="path9"
         style="stroke-width:0.264583" /><path
         d="m 70.70944,148.73342 a 0.81227082,0.81227082 0 0 1 -0.529167,-1.4314 c 4.54025,-3.84704 10.239375,-7.61206 14.694958,-10.46427 a 0.81028619,0.81028619 0 1 1 0.873125,1.36525 c -4.41325,2.82575 -10.054166,6.55108 -14.520333,10.33727 a 0.79374999,0.79374999 0 0 1 -0.518583,0.19315 z"
         fill="#ffffff"
         id="path10"
         style="stroke-width:0.264583" /><path
         d="m 97.562002,130.63327 a 0.67468749,0.67468749 0 0 1 -0.343958,-1.25677 c 1.719791,-1.016 3.114146,-1.82827 4.410606,-2.58498 2.11666,-1.2356 3.94758,-2.30188 6.50081,-3.8444 a 0.67733332,0.67733332 0 0 1 0.6985,1.15888 c -2.56117,1.54517 -4.39473,2.61408 -6.51669,3.85233 -1.29646,0.75406 -2.688164,1.56898 -4.40531,2.58234 a 0.67997916,0.67997916 0 0 1 -0.343958,0.0926 z"
         fill="#ffffff"
         id="path11"
         style="stroke-width:0.264583" /><path
         d="m 118.15981,118.19521 a 0.67733332,0.67733332 0 0 1 -0.37306,-1.2409 c 3.683,-2.42887 6.46113,-4.51644 8.50106,-6.38175 a 0.67507908,0.67507908 0 1 1 0.91282,0.99483 c -2.09286,1.91559 -4.92654,4.04548 -8.66775,6.51405 a 0.66410416,0.66410416 0 0 1 -0.37307,0.11377 z"
         fill="#ffffff"
         id="path12"
         style="stroke-width:0.264583" /><path
         d="m 131.26463,103.41029 a 0.67997916,0.67997916 0 0 1 -0.66146,-0.52917 c -0.41011,-1.87325 -1.52929,-3.841746 -3.32846,-5.849933 a 0.67544214,0.67544214 0 1 1 1.00542,-0.90223 c 1.95791,2.182813 3.175,4.357683 3.64595,6.463773 a 0.67733332,0.67733332 0 0 1 -0.51593,0.79375 0.69849999,0.69849999 0 0 1 -0.14552,0.0238 z"
         fill="#ffffff"
         id="path13"
         style="stroke-width:0.264583" /><path
         d="m 120.81094,91.32677 a 0.67997916,0.67997916 0 0 1 -0.38629,-0.121708 c -2.04788,-1.431396 -4.39738,-2.910417 -7.18344,-4.497917 a 0.67733332,0.67733332 0 0 1 0.67469,-1.172104 c 2.81781,1.616604 5.20171,3.1115 7.28398,4.566708 a 0.67204166,0.67204166 0 0 1 0.16668,0.939271 0.67997916,0.67997916 0 0 1 -0.55562,0.28575 z"
         fill="#ffffff"
         id="path14"
         style="stroke-width:0.264583" /><path
         d="m 107.13463,83.267562 a 0.66410416,0.66410416 0 0 1 -0.31221,-0.07673 c -2.63261,-1.381125 -5.32606,-2.74373 -7.860772,-4.019021 a 0.67564139,0.67564139 0 0 1 0.608541,-1.2065 c 2.540001,1.277937 5.238751,2.645833 7.879291,4.029604 a 0.67468749,0.67468749 0 0 1 -0.31485,1.272647 z"
         fill="#ffffff"
         id="path15"
         style="stroke-width:0.264583" /><path
         d="m 93.646169,76.406916 a 0.67204166,0.67204166 0 0 1 -0.306917,-0.07408 c -2.394479,-1.222375 -5.799667,-3.003021 -8.175625,-4.336521 a 0.67523849,0.67523849 0 1 1 0.661458,-1.177396 c 2.360084,1.322917 5.74675,3.092979 8.128,4.310063 a 0.67468749,0.67468749 0 0 1 -0.306916,1.277937 z"
         fill="#ffffff"
         id="path16"
         style="stroke-width:0.264583" /><path
         d="m 80.803294,69.146749 a 0.67468749,0.67468749 0 0 1 -0.381,-0.119062 c -1.5875,-1.092729 -4.902729,-3.3655 -5.326063,-6.043083 a 0.67468749,0.67468749 0 0 1 1.322917,-0.211667 c 0.333375,2.116667 3.320521,4.153958 4.7625,5.140854 a 0.67468749,0.67468749 0 0 1 -0.383646,1.232958 z"
         fill="#ffffff"
         id="path17"
         style="stroke-width:0.264583" /><path
         d="m 75.969356,58.121562 a 0.65087499,0.65087499 0 0 1 -0.28575,-0.0635 0.67468749,0.67468749 0 0 1 -0.320145,-0.896937 24.685625,24.685625 0 0 1 2.706687,-4.36298 0.67733332,0.67733332 0 0 1 1.076854,0.817563 23.418271,23.418271 0 0 0 -2.566458,4.1275 0.67204166,0.67204166 0 0 1 -0.611188,0.378354 z"
         fill="#ffffff"
         id="path18"
         style="stroke-width:0.264583" /><path
         d="m 81.499148,50.453937 a 0.67997916,0.67997916 0 0 1 -0.497417,-1.137708 c 1.058334,-1.148292 2.259542,-2.336271 3.540125,-3.526896 a 0.675828,0.675828 0 0 1 0.92075,0.989542 c -1.256771,1.169458 -2.426229,2.333625 -3.468687,3.458104 a 0.67733332,0.67733332 0 0 1 -0.494771,0.216958 z"
         fill="#ffffff"
         id="path19"
         style="stroke-width:0.264583" /><path
         d="m 87.55546,44.683375 a 0.67468749,0.67468749 0 0 1 -0.439208,-1.187979 c 1.164167,-0.99748 2.344208,-1.955271 3.500438,-2.844271 a 0.67733332,0.67733332 0 1 1 0.8255,1.071562 c -1.140355,0.875771 -2.29923,1.817688 -3.439584,2.799292 a 0.67204166,0.67204166 0 0 1 -0.447146,0.161396 z"
         fill="#ffffff"
         id="path20"
         style="stroke-width:0.264583" /><ellipse
         cx="153.77008"
         cy="223.95975"
         rx="14.218709"
         ry="4.5799375"
         opacity="0.1"
         fill="url(#a)"
         id="ellipse20"
         style="fill:url(#linearGradient1);stroke-width:0.264583" /><path
         d="m 190.3064,166.56898 c 0,35.23721 -36.53632,57.41458 -36.53632,57.41458 0,0 -36.53366,-22.18796 -36.53366,-57.41458 a 36.536312,36.536312 0 1 1 73.06998,0 z"
         fill="#f9634e"
         id="path21"
         style="fill:#14f838;fill-opacity:1;stroke-width:0.264583" /><circle
         cx="153.77008"
         cy="166.5584"
         r="19.835814"
         fill="#f8f8f8"
         id="circle21"
         style="stroke-width:0.264583" /><path
         d="m 165.95679,150.91094 a 19.84375,19.84375 0 0 1 -28.68083,26.6647 19.84375,19.84375 0 1 0 28.68083,-26.6647 z"
         opacity="0.1"
         fill="url(#b)"
         id="path22"
         style="fill:url(#b);stroke-width:0.264583" /><path
         d="m 188.91469,156.53862 c -0.48419,8.07244 -2.71727,16.51 -6.85006,24.60625 -9.59644,18.78542 -26.72292,30.39269 -43.02125,30.98536 7.81314,7.63852 14.7267,11.83481 14.7267,11.83481 0,0 36.53632,-22.16944 36.53632,-57.39606 a 36.602458,36.602458 0 0 0 -1.39171,-10.03036 z"
         opacity="0.1"
         fill="url(#c)"
         id="path23"
         style="fill:url(#c);stroke-width:0.264583" /><path
         d="m 148.16356,154.66273 c -11.05429,5.98487 -19.53683,11.20246 -21.64291,7.31043 -2.10609,-3.89202 2.02406,-16.30627 13.09158,-22.30172 11.06752,-5.99546 24.83379,-3.25967 26.93988,0.635 2.10608,3.89466 -7.33425,8.37141 -18.38855,14.35629 z"
         opacity="0.3"
         fill="url(#d)"
         id="path24"
         style="fill:url(#linearGradient2);stroke-width:0.264583" /><ellipse
         cx="45.788334"
         cy="157.12335"
         rx="10.300229"
         ry="3.3178749"
         opacity="0.1"
         fill="url(#e)"
         id="ellipse24"
         style="fill:url(#e);stroke-width:0.264583" /><path
         d="m 72.254606,115.54144 c 0,25.527 -26.458333,41.58191 -26.458333,41.58191 0,0 -26.458333,-16.05491 -26.458333,-41.58191 a 26.466271,26.466271 0 0 1 52.932541,0 z"
         fill="#fab233"
         id="path25"
         style="stroke-width:0.264583" /><circle
         cx="45.788334"
         cy="115.54144"
         r="14.369521"
         fill="#f8f8f8"
         id="circle25"
         style="stroke-width:0.264583" /><path
         d="M 54.614836,104.20669 A 14.366875,14.366875 0 0 1 33.839753,123.52127 14.366875,14.366875 0 1 0 54.614836,104.20669 Z"
         opacity="0.1"
         fill="url(#f)"
         id="path26"
         style="fill:url(#f);stroke-width:0.264583" /><path
         d="m 71.246544,108.28392 a 45.243749,45.243749 0 0 1 -4.963583,17.81968 c -6.950604,13.60752 -19.348979,22.01598 -31.162625,22.44461 5.659438,5.53508 10.668,8.57514 10.668,8.57514 0,0 26.458333,-16.05491 26.458333,-41.58191 a 26.476854,26.476854 0 0 0 -1.000125,-7.25752 z"
         opacity="0.1"
         fill="url(#g)"
         id="path27"
         style="fill:url(#g);stroke-width:0.264583" /><ellipse
         cx="124.60506"
         cy="84.267685"
         rx="6.7071877"
         ry="2.1616459"
         opacity="0.1"
         fill="url(#h)"
         id="ellipse27"
         style="fill:url(#h);stroke-width:0.264583" /><path
         d="m 141.83738,57.192875 c 0,16.621124 -17.23232,27.074812 -17.23232,27.074812 0,0 -17.22702,-10.453688 -17.22702,-27.074812 a 17.232315,17.232315 0 0 1 34.46463,0 z"
         fill="#05a9e9"
         id="path28"
         style="stroke-width:0.264583" /><circle
         cx="124.60506"
         cy="57.192875"
         r="9.3556671"
         fill="#f8f8f8"
         id="circle28"
         style="stroke-width:0.264583" /><path
         d="M 130.35446,49.813646 A 9.3556665,9.3556665 0 0 1 116.82367,62.389291 9.3556665,9.3556665 0 1 0 130.35446,49.813646 Z"
         opacity="0.1"
         fill="url(#i)"
         id="path29"
         style="fill:url(#i);stroke-width:0.264583" /><path
         d="m 141.18386,52.467416 a 29.511625,29.511625 0 0 1 -3.23321,11.601979 c -4.52702,8.860896 -12.59946,14.337771 -20.2909,14.615583 a 43.232916,43.232916 0 0 0 6.94531,5.582709 c 0,0 17.23232,-10.453688 17.23232,-27.074812 a 17.287875,17.287875 0 0 0 -0.65352,-4.725459 z"
         opacity="0.1"
         fill="url(#j)"
         id="path30"
         style="fill:url(#j);stroke-width:0.264583" /><path
         d="m 122.33494,52.197541 c -5.3684,2.910417 -9.48796,5.442479 -10.5119,3.550709 -1.02393,-1.891771 0.98955,-7.924271 6.35,-10.829396 5.36046,-2.905125 12.06236,-1.5875 13.08629,0.306917 1.02394,1.894416 -3.556,4.066645 -8.92439,6.97177 z"
         opacity="0.3"
         fill="url(#k)"
         id="path31"
         style="fill:url(#k);stroke-width:0.264583" /><path
         d="m 38.776878,113.7555 c -6.416146,3.47133 -11.337396,6.50081 -12.559771,4.23333 -1.222375,-2.26748 1.180042,-9.46679 7.596187,-12.93812 6.416146,-3.47134 14.411854,-1.89177 15.634229,0.36512 1.222375,2.2569 -4.246562,4.86834 -10.670645,8.33967 z"
         opacity="0.3"
         fill="url(#l)"
         id="path32"
         style="fill:url(#l);stroke-width:0.264583" /></g></g></svg>
