<?xml version="1.0" encoding="utf-8"?>
<svg viewBox="0 0 24 24" xmlns="http://www.w3.org/2000/svg">
  <defs>
    <linearGradient id="mapPinGradient" x1="0%" y1="0%" x2="0%" y2="100%">
        <stop offset="0%" style="stop-color:hsl(45, 83%, 68%)" />
        <stop offset="100%" style="stop-color:hsl(45, 83%, 25%)" />
    </linearGradient>
  </defs>
  <g id="map-pin">
    <path d="M14.256 21.744L12 24l-2.256-2.256C5.31 20.72 2 16.744 2 12 2 6.48 6.48 2 12 2s10 4.48 10 10c0 4.744-3.31 8.72-7.744 9.744z" fill="url(#mapPinGradient)" />
  </g>
  <g transform="translate(-19.9, -6.9) scale(1,0.8)" aria-label="Temple Symbol">
    <polygon
      points="26,19 38,19 32,15"
      fill="#fff" stroke="#eee" stroke-width="0.75" stroke-linejoin="round"
    />
    <rect
      x="27"
      y="19"
      width="3"
      height="9"
      fill="#fff" stroke="#eee"
      stroke-width="0.5" />
    <rect x="26.5"
      y="18.5"
      width="4"
      height="1"
      fill="#fff"
      stroke="#eee"
      stroke-width="0.5"
    />
    <rect x="26.5"
      y="28"
      width="4"
      height="1"
      fill="#fff"
      stroke="#eee"
      stroke-width="0.5"
    />
    <rect
      x="34"
      y="19"
      width="3"
      height="9"
      fill="#fff"
      stroke="#eee"
      stroke-width="0.5"
    />
    <rect x="33.5"
      y="18.5"
      width="4"
      height="1"
      fill="#fff"
      stroke="#eee"
      stroke-width="0.5"
    />
    <rect x="33.5"
      y="28"
      width="4"
      height="1"
      fill="#fff"
      stroke="#eee"
      stroke-width="0.5"
    />
    <rect
      x="26"
      y="29"
      width="12"
      height="1.5"
      fill="#fff"
      stroke="#eee"
      stroke-width="0.5"
    />
  </g>
</svg>