<?xml version="1.0" encoding="utf-8"?>
<svg viewBox="0 0 24 24" xmlns="http://www.w3.org/2000/svg">
  <defs>
    <linearGradient id="mapPinGradient" x1="0%" y1="0%" x2="0%" y2="100%">
       <stop offset="0%" style="stop-color:hsl(158, 83%, 68%)" /> 
  <!-- Dark Green -->
  <stop offset="100%" style="stop-color:hsl(158, 83%, 25%)" />
    </linearGradient>
  </defs>
  <!-- Base map pin shape -->
  <g id="map-pin">
    <path d="M14.256 21.744L12 24l-2.256-2.256C5.31 20.72 2 16.744 2 12 2 6.48 6.48 2 12 2s10 4.48 10 10c0 4.744-3.31 8.72-7.744 9.744z" fill="url(#mapPinGradient)" />
  </g>
  <!-- Icon Layer -->
  <g id="tree" transform="translate(3.4, 2.925) scale(0.017,0.017)" aria-label="tree">
      <path d="M212.06 633.49c35.65 113.16 481.39 205.46 602-56.32C877.61 439.2 719 63 533 70.78c-132 5.49-407 289.43-320.94 562.71z" fill="#fff" /><path d="M363.47 596.15s74.41 80.23 115.75 96.76l-18.6 260.43h94S542.25 635 539.15 596.8c-0.26-3.26 89.91-123 89.91-123l-99 70-16.74-180.56S493.68 575.1 486.45 634z" fill="#ddd" />
  </g>
</svg>