<?xml version="1.0" encoding="utf-8"?>
<svg viewBox="0 0 24 24" xmlns="http://www.w3.org/2000/svg">
  <defs>
    <linearGradient id="mapPinGradient" x1="0%" y1="0%" x2="0%" y2="100%">
       <stop offset="0%" style="stop-color:hsl(44, 43%, 68%)" /> 
	  <!-- Dark  -->
	  <stop offset="100%" style="stop-color:hsl(56, 33%, 25%)" />
    </linearGradient>
  </defs>
  <!-- Base map pin shape -->
  <g id="map-pin">
    <path d="M14.256 21.744L12 24l-2.256-2.256C5.31 20.72 2 16.744 2 12 2 6.48 6.48 2 12 2s10 4.48 10 10c0 4.744-3.31 8.72-7.744 9.744z" fill="url(#mapPinGradient)" />
  </g>
  <!-- Icon Layer -->
  

  <g transform="translate(-16, -5.625) scale(0.87,0.85)" aria-label="Fortification Symbol">
    <rect
      x="26"
      y="18"
      width="12"
      height="9"
      fill="#fff" stroke="#ddd" stroke-width="0.5"
    />

    <rect
      x="26"
      y="17"
      width="12"
      height="1.5"
      fill="#B0BEC5" stroke="#ddd" stroke-width="0.5"
    />

    <rect
      x="26"
      y="14.5"
      width="3"
      height="2"
      fill="#B0BEC5" stroke="#ddd" stroke-width="0.5"
    />
    <rect
      x="30.5" 
      y="14.5"
      width="3"
      height="2"
      fill="#B0BEC5" stroke="#ddd" stroke-width="0.5"
    />
    <rect
      x="35"
      y="14.5"
      width="3"
      height="2"
      fill="#B0BEC5" stroke="#ddd" stroke-width="0.5"
    />
 <g transform="translate(-6.4, 5) scale(1.2)" aria-label="Fortification Symbol">
    <path
      d="M30,15.5 L30,18.5 A2,2 0 0,1 34,18.5 L34,15.5 Z"
      fill="#ddd" stroke="#78909C" stroke-width="0.5"
    />
</g>

    <rect
      x="28.75" 
      y="20.5"
      width="1.5"
      height="1.5"
      fill="#fff" stroke="#78909C" stroke-width="0.5"
    />
    <rect
      x="31.25"
      y="20.5"
      width="1.5"
      height="1.5"
      fill="#fff" stroke="#78909C" stroke-width="0.5"
    />
    <rect
      x="33.75"
      y="20.5"
      width="1.5"
      height="1.5"
      fill="#fff" stroke="#78909C" stroke-width="0.5"
    />
  </g>
</svg>