<svg xmlns="http://www.w3.org/2000/svg" viewBox="0 0 64 64" width="64" height="64">
          <title>Churches and Monasteries Map Pin Icon - Modified</title>
		  <g transform="translate(-2.4, -2) scale(1.08)" aria-label="selected">
		  <path
			d="M32,2 C19.28,2 10,11.28 10,24 C10,29.97 13.53,36.67 19.5,43.06 C20.86,44.78 22.3,46.51 23.78,48.26 L32,62 L40.22,48.26 C41.7,46.51 43.14,44.78 44.5,43.06 C50.47,36.67 54,29.97 54,24 C54,11.28 44.72,2 32,2 Z M32,34 C26.48,34 22,29.52 22,24 C22,18.48 26.48,14 32,14 C37.52,14 42,18.48 42,24 C42,29.52 37.52,34 32,34 Z"
			fill="red" stroke="#D8C0A0" stroke-width="0"
			aria-label="Map Pin Selected"
		  />
	  </g>
          <path
            d="M32,2 C19.28,2 10,11.28 10,24 C10,29.97 13.53,36.67 19.5,43.06 C20.86,44.78 22.3,46.51 23.78,48.26 L32,62 L40.22,48.26 C41.7,46.51 43.14,44.78 44.5,43.06 C50.47,36.67 54,29.97 54,24 C54,11.28 44.72,2 32,2 Z M32,34 C26.48,34 22,29.52 22,24 C22,18.48 26.48,14 32,14 C37.52,14 42,18.48 42,24 C42,29.52 37.52,34 32,34 Z"
            fill="#4FC3F7" stroke="#039BE5" stroke-width="1.5"
            aria-label="Map Pin for Churches/Monasteries"
          />
          <circle
            cx="32"
            cy="24"
            r="20"
            fill="white"
            aria-label="Pin head background"
          />
          <g transform="translate(13.0, 2) scale(1.2)" aria-label="Modified Church Symbol">
			<g transform="translate(-9.5, 1) scale(1.6,1)" aria-label="Modified Church Symbol">
				<path d="M10 28H22V15L16 8L10 15V28Z" stroke="#22a575" stroke-width="2" fill="#FFFFFF" />
			</g>
			
				<path d="M12 28V18H20V28" stroke="#22a575" stroke-width="1.2" fill="#E0F2F7" />
			
			<g transform="translate(0, -6) scale(1,1.5)" aria-label="Modified Church Symbol">
            <path d="M16 6V10" stroke="#22a575" stroke-width="1" stroke-linecap="round" fill="none" />
			</g>
            <path d="M13 5H19"  stroke="#22a575" stroke-width="1" stroke-linecap="round" fill="none"/>

          </g>
        </svg>
        