<svg xmlns="http://www.w3.org/2000/svg" viewBox="0 0 64 64" width="64" height="64">
  <title>Map Pin - Environmental Site</title>

  
 <g transform="translate(-2.4, -2) scale(1.08)" aria-label="selected">
		  <path
			d="M32,2 C19.28,2 10,11.28 10,24 C10,29.97 13.53,36.67 19.5,43.06 C20.86,44.78 22.3,46.51 23.78,48.26 L32,62 L40.22,48.26 C41.7,46.51 43.14,44.78 44.5,43.06 C50.47,36.67 54,29.97 54,24 C54,11.28 44.72,2 32,2 Z M32,34 C26.48,34 22,29.52 22,24 C22,18.48 26.48,14 32,14 C37.52,14 42,18.48 42,24 C42,29.52 37.52,34 32,34 Z"
			fill="red" stroke="#D8C0A0" stroke-width="0"
			aria-label="Map Pin Selected"
		  />
	  </g>

  <path
    d="M32,2 C19.28,2 10,11.28 10,24 C10,29.97 13.53,36.67 19.5,43.06 C20.86,44.78 22.3,46.51 23.78,48.26 L32,62 L40.22,48.26 C41.7,46.51 43.14,44.78 44.5,43.06 C50.47,36.67 54,29.97 54,24 C54,11.28 44.72,2 32,2 Z M32,34 C26.48,34 22,29.52 22,24 C22,18.48 26.48,14 32,14 C37.52,14 42,18.48 42,24 C42,29.52 37.52,34 32,34 Z"
    fill="#c9d09d" stroke="#9b87a6" stroke-width="1.5"
    aria-label="Map Pin"
  />

  <circle
    cx="32"
    cy="24"
    r="20"
    fill="white"
    aria-label="Pin head background"
  />

 
 

<g style="stroke: none; stroke-width: 0; stroke-dasharray: none; stroke-linecap: butt; stroke-linejoin: miter; stroke-miterlimit: 10; fill: none; fill-rule: nonzero; opacity: 1;" transform="translate(17 1.4065934065934016) scale(0.32 0.41)">
	<path d="M 89 78.854 c -3.192 -20.706 -20.649 -36.705 -42.019 -37.641 c -0.657 -0.029 -1.317 -0.043 -1.981 -0.043 c -3.194 0 -6.31 0.336 -9.314 0.976 C 17.755 45.962 3.818 60.573 1 78.854 H 89 z" style="stroke: none; stroke-width: 1; stroke-dasharray: none; stroke-linecap: butt; stroke-linejoin: miter; stroke-miterlimit: 10; fill: rgb(28,165,111); fill-rule: nonzero; opacity: 1;" transform=" matrix(1 0 0 1 0 0) " stroke-linecap="round"/>
	<path d="M 61.139 78.715 c -4.043 -3.558 -6.228 -8.928 -3.298 -18.188 c 4.201 -9.738 -3.238 -16.204 -10.86 -19.314 l 0 0 c -0.657 -0.029 -1.317 -0.043 -1.981 -0.043 c -3.194 0 -6.31 0.336 -9.314 0.976 l 0 0.001 c 7.516 2.385 17.161 9.116 7.919 14.973 c -9.779 6.694 -13.726 14.044 -14.745 21.734 L 61.139 78.715 z" style="stroke: none; stroke-width: 1; stroke-dasharray: none; stroke-linecap: butt; stroke-linejoin: miter; stroke-miterlimit: 10; fill: rgb(118,226,248); fill-rule: nonzero; opacity: 1;" transform=" matrix(1 0 0 1 0 0) " stroke-linecap="round"/>
	<path d="M 89 79.854 H 1 c -0.292 0 -0.569 -0.128 -0.759 -0.349 c -0.19 -0.222 -0.273 -0.516 -0.229 -0.804 C 3.398 56.734 22.739 40.169 45 40.169 c 22.262 0 41.603 16.565 44.988 38.532 c 0.045 0.288 -0.039 0.582 -0.229 0.804 C 89.569 79.726 89.292 79.854 89 79.854 z M 2.182 77.854 h 85.635 C 84.094 57.429 65.893 42.169 45 42.169 C 24.108 42.169 5.906 57.429 2.182 77.854 z" style="stroke: none; stroke-width: 1; stroke-dasharray: none; stroke-linecap: butt; stroke-linejoin: miter; stroke-miterlimit: 10; fill: rgb(0,0,0); fill-rule: nonzero; opacity: 1;" transform=" matrix(1 0 0 1 0 0) " stroke-linecap="round"/>
	<path d="M 28.861 79.854 c -0.287 0 -0.561 -0.124 -0.75 -0.339 c -0.191 -0.218 -0.279 -0.506 -0.241 -0.792 c 1.18 -8.912 6.143 -16.248 15.171 -22.428 c 2.432 -1.542 3.541 -3.156 3.326 -4.816 c -0.43 -3.315 -5.979 -6.792 -10.982 -8.379 c -0.433 -0.137 -0.719 -0.548 -0.697 -1.001 c 0.022 -0.454 0.347 -0.835 0.791 -0.93 c 3.765 -0.803 7.697 -1.122 11.547 -0.955 c 0.114 0.005 0.228 0.03 0.334 0.073 c 3.416 1.394 9.491 4.576 11.799 10.222 c 1.316 3.22 1.188 6.706 -0.379 10.366 c -2.428 7.709 -1.468 13.14 3.021 17.089 c 0.313 0.274 0.422 0.713 0.276 1.102 c -0.146 0.39 -0.517 0.647 -0.933 0.649 l -32.278 0.139 C 28.864 79.854 28.862 79.854 28.861 79.854 z M 39.417 42.525 c 3.984 1.824 8.436 4.857 8.933 8.698 c 0.323 2.498 -1.093 4.767 -4.209 6.742 C 35.91 63.6 31.39 69.948 30.025 77.849 l 28.749 -0.124 c -3.621 -4.326 -4.234 -10.079 -1.887 -17.5 c 0.01 -0.032 0.021 -0.063 0.035 -0.095 c 1.365 -3.165 1.495 -6.147 0.385 -8.864 c -1.998 -4.887 -7.393 -7.754 -10.544 -9.061 C 44.328 42.104 41.847 42.214 39.417 42.525 z" style="stroke: none; stroke-width: 1; stroke-dasharray: none; stroke-linecap: butt; stroke-linejoin: miter; stroke-miterlimit: 10; fill: rgb(0,0,0); fill-rule: nonzero; opacity: 1;" transform=" matrix(1 0 0 1 0 0) " stroke-linecap="round"/>
	<path d="M 37.73 49.912 L 26.146 18.04 c -1.231 -3.388 -6.022 -3.388 -7.253 0 L 7.309 49.912 c -0.915 2.517 0.949 5.177 3.627 5.177 h 23.168 C 36.781 55.089 38.645 52.429 37.73 49.912 z" style="stroke: none; stroke-width: 1; stroke-dasharray: none; stroke-linecap: butt; stroke-linejoin: miter; stroke-miterlimit: 10; fill: rgb(153,213,59); fill-rule: nonzero; opacity: 1;" transform=" matrix(1 0 0 1 0 0) " stroke-linecap="round"/>
	<path d="M 34.104 56.089 H 10.936 c -1.583 0 -3.071 -0.774 -3.98 -2.071 c -0.908 -1.297 -1.127 -2.959 -0.586 -4.447 l 11.583 -31.872 c 0.707 -1.943 2.499 -3.199 4.567 -3.199 c 0 0 0 0 0 0 c 2.067 0 3.86 1.256 4.566 3.199 L 38.67 49.57 l 0 0 c 0.541 1.488 0.321 3.151 -0.587 4.447 C 37.174 55.314 35.687 56.089 34.104 56.089 z M 22.52 16.5 c -0.968 0 -2.183 0.495 -2.687 1.882 L 8.249 50.254 c -0.323 0.889 -0.197 1.842 0.345 2.616 c 0.542 0.774 1.396 1.219 2.342 1.219 h 23.168 c 0.945 0 1.799 -0.444 2.341 -1.219 s 0.668 -1.728 0.345 -2.616 L 25.206 18.382 C 24.702 16.994 23.488 16.5 22.52 16.5 z" style="stroke: none; stroke-width: 1; stroke-dasharray: none; stroke-linecap: butt; stroke-linejoin: miter; stroke-miterlimit: 10; fill: rgb(0,0,0); fill-rule: nonzero; opacity: 1;" transform=" matrix(1 0 0 1 0 0) " stroke-linecap="round"/>
	<path d="M 22.52 68.984 c -0.552 0 -1 -0.447 -1 -1 v -31.29 c 0 -0.552 0.448 -1 1 -1 s 1 0.448 1 1 v 31.29 C 23.52 68.537 23.072 68.984 22.52 68.984 z" style="stroke: none; stroke-width: 1; stroke-dasharray: none; stroke-linecap: butt; stroke-linejoin: miter; stroke-miterlimit: 10; fill: rgb(0,0,0); fill-rule: nonzero; opacity: 1;" transform=" matrix(1 0 0 1 0 0) " stroke-linecap="round"/>
	<path d="M 22.52 50.998 c -0.256 0 -0.512 -0.098 -0.707 -0.293 c -0.391 -0.391 -0.391 -1.023 0 -1.414 l 3.784 -3.784 c 0.391 -0.391 1.023 -0.391 1.414 0 s 0.391 1.023 0 1.414 l -3.784 3.784 C 23.031 50.9 22.775 50.998 22.52 50.998 z" style="stroke: none; stroke-width: 1; stroke-dasharray: none; stroke-linecap: butt; stroke-linejoin: miter; stroke-miterlimit: 10; fill: rgb(0,0,0); fill-rule: nonzero; opacity: 1;" transform=" matrix(1 0 0 1 0 0) " stroke-linecap="round"/>
	<path d="M 22.52 46.662 c -0.256 0 -0.512 -0.098 -0.707 -0.293 l -3.784 -3.784 c -0.391 -0.391 -0.391 -1.023 0 -1.414 s 1.023 -0.391 1.414 0 l 3.784 3.784 c 0.391 0.391 0.391 1.023 0 1.414 C 23.031 46.564 22.775 46.662 22.52 46.662 z" style="stroke: none; stroke-width: 1; stroke-dasharray: none; stroke-linecap: butt; stroke-linejoin: miter; stroke-miterlimit: 10; fill: rgb(0,0,0); fill-rule: nonzero; opacity: 1;" transform=" matrix(1 0 0 1 0 0) " stroke-linecap="round"/>
	<path d="M 76.019 34.112 l -7.731 -21.27 c -0.822 -2.261 -4.019 -2.261 -4.841 0 l -7.731 21.27 c -0.61 1.679 0.633 3.455 2.42 3.455 h 15.461 C 75.385 37.566 76.629 35.791 76.019 34.112 z" style="stroke: none; stroke-width: 1; stroke-dasharray: none; stroke-linecap: butt; stroke-linejoin: miter; stroke-miterlimit: 10; fill: rgb(153,213,59); fill-rule: nonzero; opacity: 1;" transform=" matrix(1 0 0 1 0 0) " stroke-linecap="round"/>
	<path d="M 73.599 38.566 H 58.138 c -1.165 0 -2.26 -0.57 -2.929 -1.524 c -0.668 -0.954 -0.83 -2.177 -0.432 -3.272 l 7.73 -21.27 c 0.52 -1.43 1.839 -2.354 3.36 -2.354 c 0 0 0 0 0.001 0 c 1.521 0 2.84 0.924 3.358 2.354 l 7.73 21.27 c 0.398 1.095 0.237 2.318 -0.432 3.273 C 75.858 37.997 74.764 38.566 73.599 38.566 z M 65.868 12.146 c -0.534 0 -1.203 0.272 -1.481 1.037 l -7.73 21.27 c -0.178 0.489 -0.108 1.015 0.19 1.441 c 0.3 0.427 0.77 0.672 1.291 0.672 h 15.461 c 0.521 0 0.991 -0.245 1.29 -0.671 c 0.299 -0.426 0.368 -0.952 0.19 -1.441 l 0 0 l -7.73 -21.27 C 67.07 12.419 66.401 12.146 65.868 12.146 L 65.868 12.146 z" style="stroke: none; stroke-width: 1; stroke-dasharray: none; stroke-linecap: butt; stroke-linejoin: miter; stroke-miterlimit: 10; fill: rgb(0,0,0); fill-rule: nonzero; opacity: 1;" transform=" matrix(1 0 0 1 0 0) " stroke-linecap="round"/>
	<path d="M 65.868 47.354 c -0.553 0 -1 -0.447 -1 -1 V 25.291 c 0 -0.552 0.447 -1 1 -1 s 1 0.448 1 1 v 21.063 C 66.868 46.906 66.421 47.354 65.868 47.354 z" style="stroke: none; stroke-width: 1; stroke-dasharray: none; stroke-linecap: butt; stroke-linejoin: miter; stroke-miterlimit: 10; fill: rgb(0,0,0); fill-rule: nonzero; opacity: 1;" transform=" matrix(1 0 0 1 0 0) " stroke-linecap="round"/>
	<path d="M 65.868 35.169 c -0.256 0 -0.512 -0.098 -0.707 -0.293 c -0.391 -0.391 -0.391 -1.023 0 -1.414 l 2.525 -2.525 c 0.391 -0.391 1.023 -0.391 1.414 0 s 0.391 1.023 0 1.414 l -2.525 2.525 C 66.38 35.072 66.124 35.169 65.868 35.169 z" style="stroke: none; stroke-width: 1; stroke-dasharray: none; stroke-linecap: butt; stroke-linejoin: miter; stroke-miterlimit: 10; fill: rgb(0,0,0); fill-rule: nonzero; opacity: 1;" transform=" matrix(1 0 0 1 0 0) " stroke-linecap="round"/>
	<path d="M 65.868 32.275 c -0.256 0 -0.512 -0.098 -0.707 -0.293 l -2.525 -2.525 c -0.391 -0.391 -0.391 -1.023 0 -1.414 s 1.023 -0.391 1.414 0 l 2.525 2.525 c 0.391 0.391 0.391 1.023 0 1.414 C 66.38 32.178 66.124 32.275 65.868 32.275 z" style="stroke: none; stroke-width: 1; stroke-dasharray: none; stroke-linecap: butt; stroke-linejoin: miter; stroke-miterlimit: 10; fill: rgb(0,0,0); fill-rule: nonzero; opacity: 1;" transform=" matrix(1 0 0 1 0 0) " stroke-linecap="round"/>
	<path d="M 62.139 69.665 c 0.252 -1.716 1.725 -3.035 3.511 -3.035 c 0.066 0 0.129 0.006 0.194 0.01 c 0.365 -1.575 1.773 -2.749 3.459 -2.749 c 0.547 0 1.064 0.127 1.527 0.349 c 0.623 -1.029 1.749 -1.718 3.039 -1.718 c 1.844 0 3.359 1.405 3.536 3.202 c 0.039 -0.001 0.078 -0.006 0.117 -0.006 c 1.962 0 3.553 1.591 3.553 3.553 c 0 0.134 -0.009 0.265 -0.023 0.395 H 62.139 z" style="stroke: none; stroke-width: 1; stroke-dasharray: none; stroke-linecap: butt; stroke-linejoin: miter; stroke-miterlimit: 10; fill: rgb(153,213,59); fill-rule: nonzero; opacity: 1;" transform=" matrix(1 0 0 1 0 0) " stroke-linecap="round"/>
	<path d="M 81.053 70.665 H 62.14 c -0.29 0 -0.566 -0.126 -0.757 -0.346 c -0.189 -0.22 -0.274 -0.512 -0.232 -0.799 c 0.298 -2.039 1.957 -3.617 3.964 -3.858 c 0.701 -1.665 2.328 -2.772 4.189 -2.772 c 0.397 0 0.788 0.052 1.169 0.154 c 0.855 -0.966 2.075 -1.523 3.396 -1.523 c 2.058 0 3.806 1.349 4.366 3.252 c 2.173 0.343 3.84 2.229 3.84 4.497 c 0 0.169 -0.011 0.336 -0.028 0.5 C 81.994 70.278 81.564 70.665 81.053 70.665 z M 63.604 68.665 h 16.398 c -0.276 -1.133 -1.31 -1.937 -2.532 -1.947 c -0.515 0 -1.01 -0.384 -1.061 -0.897 c -0.129 -1.311 -1.222 -2.3 -2.541 -2.3 c -0.898 0 -1.715 0.462 -2.183 1.235 c -0.266 0.439 -0.818 0.605 -1.285 0.386 c -0.351 -0.167 -0.72 -0.252 -1.098 -0.252 c -1.193 0 -2.215 0.813 -2.484 1.976 c -0.111 0.477 -0.554 0.802 -1.035 0.772 L 65.65 67.63 C 64.825 67.63 64.074 68.034 63.604 68.665 z" style="stroke: none; stroke-width: 1; stroke-dasharray: none; stroke-linecap: butt; stroke-linejoin: miter; stroke-miterlimit: 10; fill: rgb(0,0,0); fill-rule: nonzero; opacity: 1;" transform=" matrix(1 0 0 1 0 0) " stroke-linecap="round"/>
</g>

 
 
</svg>