<svg xmlns="http://www.w3.org/2000/svg" viewBox="0 0 64 64" width="64" height="64">
  <title>Map Pin - Museum</title>

 <g transform="translate(-2.4, -2) scale(1.08)" aria-label="selected">
		  <path
			d="M32,2 C19.28,2 10,11.28 10,24 C10,29.97 13.53,36.67 19.5,43.06 C20.86,44.78 22.3,46.51 23.78,48.26 L32,62 L40.22,48.26 C41.7,46.51 43.14,44.78 44.5,43.06 C50.47,36.67 54,29.97 54,24 C54,11.28 44.72,2 32,2 Z M32,34 C26.48,34 22,29.52 22,24 C22,18.48 26.48,14 32,14 C37.52,14 42,18.48 42,24 C42,29.52 37.52,34 32,34 Z"
			fill="red" stroke="#D8C0A0" stroke-width="0"
			aria-label="Map Pin Selected"
		  />
	  </g>

  <path
    d="M32,2 C19.28,2 10,11.28 10,24 C10,29.97 13.53,36.67 19.5,43.06 C20.86,44.78 22.3,46.51 23.78,48.26 L32,62 L40.22,48.26 C41.7,46.51 43.14,44.78 44.5,43.06 C50.47,36.67 54,29.97 54,24 C54,11.28 44.72,2 32,2 Z M32,34 C26.48,34 22,29.52 22,24 C22,18.48 26.48,14 32,14 C37.52,14 42,18.48 42,24 C42,29.52 37.52,34 32,34 Z"
    fill="#c9d09d" stroke="#9b87a6" stroke-width="1.5"
    aria-label="Map Pin"
  />

  <circle
    cx="32"
    cy="24"
    r="20"
    fill="white"
    aria-label="Pin head background"
  />


  <g transform="translate(-3.4, -5.5) scale(1.1) " id="museum-icon" stroke="none" aria-label="Museum Icon">
      <rect x="18" y="33" width="28" height="3" fill="#8a6e8a"/> <rect x="20" y="31" width="24" height="2" fill="#CCCCCC"/> <rect x="21" y="24" width="22" height="7" fill="#666666"/>

      <rect x="23" y="20" width="3" height="11" fill="#888888"/>
      <rect x="29.5" y="20" width="3" height="11" fill="#888888"/>
      <rect x="36" y="20" width="3" height="11" fill="#888888"/>

      <rect x="27" y="25" width="4" height="6" fill="#444444"/>
      <rect x="31.5" y="25" width="4" height="6" fill="#444444"/>

      <rect x="21" y="18" width="22" height="5" fill="#444444"/>

      <polygon points="19,18 32,12 45,18" fill="#8a6e8a"/>

      <text x="32" y="20.5"
            font-family="sans-serif" font-size="4.5" fill="white"
            text-anchor="middle" font-weight="bold"
            dominant-baseline="middle">
            MUSEUM
      </text>
  </g>

</svg>